<?xml version="1.0" encoding="UTF-8"?>
<svg version="1.1" xmlns="http://www.w3.org/2000/svg" width="1792" height="2560">
<path d="M0 0 C591.36 0 1182.72 0 1792 0 C1792 844.8 1792 1689.6 1792 2560 C1200.64 2560 609.28 2560 0 2560 C0 1715.2 0 870.4 0 0 Z " fill="#FEFEFE" transform="translate(0,0)"/>
<path d="M0 0 C1.45415314 0.00040787 1.45415314 0.00040787 2.93768311 0.00082397 C18.6320913 0.02100836 34.12975437 0.56522662 49.75 2.1875 C50.84924805 2.29465332 51.94849609 2.40180664 53.08105469 2.51220703 C99.52599195 7.07958062 143.26280941 21.78672307 177.75 54.1875 C178.35070313 54.72375 178.95140625 55.26 179.5703125 55.8125 C188.12566208 63.77096473 194.35316819 74.01956183 199.8125 84.25 C200.1945459 84.96397949 200.5765918 85.67795898 200.97021484 86.41357422 C202.81774864 89.98581174 204.23770879 93.14434018 204.75 97.1875 C205.39582031 97.28804688 206.04164063 97.38859375 206.70703125 97.4921875 C221.01306421 100.34947999 235.15452198 108.25200967 245.75 118.1875 C246.21954102 118.61756348 246.68908203 119.04762695 247.17285156 119.49072266 C254.95195999 126.66356959 261.11855767 134.19195635 266.75 143.1875 C267.43835937 144.27675781 268.12671875 145.36601562 268.8359375 146.48828125 C283.24279514 170.41691262 289.29229584 198.63405646 291.75 226.1875 C291.83902588 227.17637207 291.92805176 228.16524414 292.01977539 229.18408203 C292.9796213 241.42447625 292.94941166 253.66638986 292.9375 265.9375 C292.93659363 267.65892715 292.93659363 267.65892715 292.93566895 269.41513062 C292.894243 298.49538876 291.35842248 326.97765591 287.23046875 355.77246094 C286.79042845 358.90014578 286.38562466 362.029273 286 365.1640625 C284.43178495 377.75291437 282.04771981 390.07670201 279.33544922 402.46679688 C278.4251021 406.69736747 277.58363235 410.94123944 276.75 415.1875 C277.74 414.8575 278.73 414.5275 279.75 414.1875 C291.4019242 413.26322513 299.75164013 414.61684005 308.875 422.0625 C320.61702267 433.36072969 324.79734054 447.48347381 325.18359375 463.47265625 C325.22158433 466.39913752 325.21254727 469.32343872 325.1875 472.25 C325.18243942 473.40276932 325.18243942 473.40276932 325.17727661 474.5788269 C325.09733793 487.19131959 323.95943759 498.95681989 320.75 511.1875 C320.48735352 512.24324219 320.22470703 513.29898438 319.95410156 514.38671875 C316.2304718 529.349483 311.87501486 543.40379831 304.875 557.1875 C304.53186768 557.86409668 304.18873535 558.54069336 303.83520508 559.23779297 C291.38969849 583.55435396 274.41821932 604.98004682 247.75 614.1875 C246.89535156 614.54972656 246.04070313 614.91195312 245.16015625 615.28515625 C242.75 616.1875 242.75 616.1875 239.75 616.1875 C239.6675 617.3425 239.585 618.4975 239.5 619.6875 C238.22118305 630.91656389 234.68665424 641.75172061 231.0324707 652.39746094 C229.27941689 657.51864291 227.72009965 662.66628998 226.25 667.875 C224.31395677 674.65622765 221.92118222 681.13786843 219.2109375 687.64453125 C217.84926926 690.94675878 216.60411675 694.27173853 215.375 697.625 C207.02397523 719.36968112 193.99995007 738.3450685 179.0625 756.0625 C178.61567871 756.5999585 178.16885742 757.13741699 177.70849609 757.69116211 C175.61725042 760.16642818 173.51596574 762.38989881 171.0625 764.51171875 C167.95982114 767.28958592 165.13257488 769.84281517 164.43307495 774.12983704 C164.34455904 776.45832764 164.38199643 778.75328864 164.46484375 781.08203125 C164.48910431 782.39087784 164.48910431 782.39087784 164.51385498 783.72616577 C164.57237977 786.54750387 164.65997945 789.36700618 164.75 792.1875 C164.79681294 794.05963105 164.8427928 795.93178311 164.88793945 797.80395508 C164.94838413 839.47312547 164.94838413 839.47312547 175.75 879.1875 C176.15943848 880.0842041 176.15943848 880.0842041 176.57714844 880.99902344 C186.84088406 903.05754917 204.36626298 917.35025959 225.75 928.1875 C226.54148437 928.59210449 227.33296875 928.99670898 228.1484375 929.41357422 C242.67994646 936.77269704 257.61612879 942.54509504 273.08203125 947.6171875 C273.74090332 947.83334717 274.39977539 948.04950684 275.07861328 948.2722168 C276.77159532 948.82120191 278.46954539 949.35480623 280.16796875 949.88671875 C283.15466811 950.97131077 285.9562999 952.16882457 288.8359375 953.5 C295.18653739 956.43291683 301.66676664 958.97306941 308.1875 961.5 C310.06409293 962.23155997 311.94020737 962.96433746 313.81628418 963.69721985 C315.66523186 964.41946315 317.51449847 965.14088981 319.36376953 965.86230469 C325.40644967 968.22709688 331.42784578 970.64411902 337.44921875 973.0625 C341.36458237 974.63494724 345.28485525 976.19462477 349.20703125 977.75 C368.12013338 985.26243943 386.92494892 993.0241933 405.71252441 1000.84461975 C411.9955061 1003.45954777 418.28191317 1006.0660981 424.5703125 1008.66796875 C547.74086129 1059.63683253 547.74086129 1059.63683253 581.6015625 1091.19140625 C583.56040872 1093.01135246 585.57295875 1094.72467373 587.625 1096.4375 C608.30110025 1114.58098556 624.42600758 1138.61455314 631.75 1165.1875 C632.03101563 1166.12722656 632.31203125 1167.06695313 632.6015625 1168.03515625 C634.37852263 1174.41605854 635.40695937 1180.8946773 636.375 1187.4375 C636.4982666 1188.25814941 636.6215332 1189.07879883 636.74853516 1189.92431641 C638.57491119 1203.00702935 638.89721226 1216.19173667 638.92358398 1229.38232422 C638.92991611 1230.82391041 638.93668464 1232.26549473 638.94384766 1233.70707703 C638.95835701 1236.78151927 638.97014663 1239.85595482 638.97979546 1242.93041611 C638.99553441 1247.84118672 639.01948917 1252.75189822 639.04469299 1257.66262817 C639.11072918 1270.74956893 639.16846928 1283.83654147 639.21710598 1296.92355865 C639.2583749 1308.00899292 639.30759041 1319.09435681 639.37109375 1330.1796875 C639.37813961 1331.42185119 639.37813961 1331.42185119 639.38532782 1332.68910909 C639.52247366 1356.13628651 640.05789939 1379.49529991 641.42073345 1402.90747738 C642.03326522 1413.74519477 642.1070068 1424.59720306 642.21359253 1435.44970703 C642.40259701 1453.88057502 642.77898613 1472.25878569 643.93727112 1490.65428162 C644.70161783 1502.97528204 645.141015 1515.30090295 645.53813362 1527.63853836 C645.72558857 1533.45684912 645.91949663 1539.27494568 646.11295426 1545.0930593 C646.18198828 1547.17113469 646.25076574 1549.24921846 646.31952572 1551.32730293 C646.80476898 1565.96385115 647.32248137 1580.59922558 647.8422718 1595.23458099 C648.0047491 1599.81027749 648.16645572 1604.38600101 648.32798767 1608.96173096 C648.38229292 1610.49974189 648.43659864 1612.0377528 648.49090481 1613.5757637 C648.51784857 1614.33886431 648.54479233 1615.10196492 648.57255256 1615.88818979 C648.92980354 1626.00525879 649.28767226 1636.12230476 649.64819336 1646.23925781 C650.78424767 1678.13119048 651.89961082 1710.01881472 652.6033783 1741.92385006 C652.84121047 1752.51078739 653.2035615 1763.09392296 653.56567383 1773.67721558 C653.69525819 1777.4775236 653.82160909 1781.27792928 653.94726562 1785.07836914 C654.29546057 1795.60674991 654.64554381 1806.13506207 655.00439453 1816.66308594 C656.30775088 1854.98939192 657.23824987 1893.3155901 657.99383545 1931.65637589 C658.08971344 1936.51703591 658.18697714 1941.37766719 658.28515625 1946.23828125 C658.30398865 1947.17298626 658.32282104 1948.10769127 658.34222412 1949.07072067 C658.58704489 1961.07895977 658.92839836 1973.07553113 659.41496277 1985.07669067 C659.8276261 1995.4949921 659.95727624 2005.91193877 660.08157349 2016.33700562 C660.33856071 2037.27396946 660.80993593 2058.19717031 661.48046875 2079.125 C664.45468685 2172.30416179 664.32423706 2264.80180609 658.1875 2372.125 C658.13434757 2373.04106773 658.08119514 2373.95713547 658.02643204 2374.90096283 C657.72015063 2380.1722822 657.40678804 2385.4430936 657.08265305 2390.71334648 C656.98527675 2392.30667559 656.88967157 2393.90011419 656.7960701 2395.49366951 C656.66583842 2397.69921165 656.52806961 2399.90416691 656.38842773 2402.10913086 C656.31309311 2403.3380455 656.23775848 2404.56696014 656.16014099 2405.83311462 C655.58148667 2411.97657252 654.62266163 2418.07886861 653.75 2424.1875 C232.34 2424.1875 -189.07 2424.1875 -623.25 2424.1875 C-626.66817368 2376.3330685 -626.66817368 2376.3330685 -627.21655273 2362.10903931 C-627.39209572 2357.56429606 -627.58914793 2353.02046195 -627.78515625 2348.4765625 C-627.82339508 2347.58312637 -627.86163391 2346.68969025 -627.90103149 2345.7691803 C-628.18567721 2339.27007163 -628.5668015 2332.78313162 -628.99829102 2326.29199219 C-634.27679037 2246.77147628 -632.9243658 2166.92896466 -630.62120056 2087.3216095 C-630.35813358 2078.21757601 -630.12134517 2069.11369812 -629.9296875 2060.0078125 C-629.89677864 2058.45136017 -629.89677864 2058.45136017 -629.86320496 2056.86346436 C-629.78615623 2053.17480576 -629.71027032 2049.48613257 -629.63870239 2045.79736328 C-629.62330414 2045.00958496 -629.60790588 2044.22180664 -629.59204102 2043.41015625 C-629.57931656 2042.74137451 -629.5665921 2042.07259277 -629.55348206 2041.38354492 C-629.41875917 2035.51290842 -629.23861645 2029.6535716 -628.90934753 2023.79029751 C-628.15719936 2010.26905364 -627.8714678 1996.73936317 -627.57575035 1983.2018497 C-627.49969643 1979.75252229 -627.42015774 1976.30327517 -627.34094238 1972.85401917 C-627.1576303 1964.84873361 -626.978312 1956.84336116 -626.79947662 1948.83797455 C-626.57226876 1938.67549429 -626.34317078 1928.51305801 -626.11051702 1918.35070091 C-626.00305596 1913.6502268 -625.89869551 1908.94969023 -625.79504395 1904.24913025 C-625.49486015 1890.90970581 -625.11992875 1877.57730271 -624.59065247 1864.24481869 C-624.21615976 1854.77806816 -624.02196522 1845.31226539 -623.86157227 1835.83984375 C-623.51143282 1815.57704771 -622.87283518 1795.33168945 -622.11502075 1775.08041382 C-621.56322697 1760.32541549 -621.07579486 1745.57420869 -620.75 1730.8125 C-620.44412352 1717.13751603 -619.95684843 1703.47835866 -619.375 1689.8125 C-618.68030404 1673.45703767 -618.10818278 1657.10127864 -617.62890625 1640.73828125 C-617.60175285 1639.81305664 -617.57459946 1638.88783203 -617.54662323 1637.93457031 C-617.43264386 1634.04809345 -617.31893249 1630.16160879 -617.20536804 1626.27511978 C-616.01588524 1585.5800705 -614.59802205 1544.89781433 -612.99670702 1504.21719652 C-612.72119157 1497.21400022 -612.44895912 1490.21067726 -612.17680538 1483.20734966 C-611.93619313 1477.0184175 -611.69477241 1470.82951682 -611.453125 1464.640625 C-611.42694005 1463.96993398 -611.40075511 1463.29924296 -611.37377667 1462.60822797 C-610.81295042 1448.25037214 -610.24432668 1433.89300271 -609.63108063 1419.53728104 C-609.23486779 1410.25475632 -608.85705228 1400.97161477 -608.5 1391.6875 C-608.4690625 1390.88853806 -608.438125 1390.08957611 -608.40625 1389.2664032 C-607.43893767 1364.02543798 -607.11359364 1338.78797012 -606.953125 1313.53125 C-606.94815915 1312.76651556 -606.9431933 1312.00178112 -606.93807697 1311.21387291 C-606.83784874 1295.75113316 -606.75122157 1280.2884333 -606.72765422 1264.82536745 C-606.71856836 1258.98414313 -606.70045 1253.14298884 -606.67647862 1247.30180693 C-606.66321577 1243.90587178 -606.65693827 1240.51028509 -606.66117096 1237.11430359 C-606.71488413 1192.9181262 -602.29334101 1151.26187065 -573.25 1116.1875 C-572.54786377 1115.32511719 -572.54786377 1115.32511719 -571.83154297 1114.4453125 C-564.89676244 1105.95014839 -557.5501939 1098.3484516 -549.25 1091.1875 C-548.29480469 1090.35734375 -547.33960938 1089.5271875 -546.35546875 1088.671875 C-497.13913547 1046.76881213 -433.65865249 1024.59569331 -374.25 1001.1875 C-372.7412105 1000.59277456 -371.23242145 999.99804794 -369.72363281 999.40332031 C-368.12044278 998.77148419 -366.51725267 998.13964826 -364.9140625 997.5078125 C-364.10873581 997.19037582 -363.30340912 996.87293915 -362.47367859 996.54588318 C-361.66244034 996.22612015 -360.85120209 995.90635712 -360.01538086 995.5769043 C-359.19891083 995.25507172 -358.3824408 994.93323914 -357.54122925 994.60165405 C-355.89010502 993.95108797 -354.23883971 993.30087983 -352.58743286 992.65103149 C-342.6500881 988.74041385 -332.7449862 984.76581663 -322.875 980.6875 C-305.92178577 973.70777103 -288.70644565 967.40489378 -271.51922607 961.02984619 C-268.20040575 959.79788623 -264.88347916 958.56087592 -261.56640625 957.32421875 C-244.28204063 950.8920039 -244.28204063 950.8920039 -235.85546875 947.9296875 C-221.69809337 942.94526048 -207.88769079 937.46297476 -194.25 931.1875 C-193.47769043 930.83300781 -192.70538086 930.47851562 -191.90966797 930.11328125 C-167.89113609 918.9562858 -149.58235192 903.63443634 -140.25 878.1875 C-131.44362153 853.95772813 -131.98107189 828.00834141 -131.62524414 802.50854492 C-131.58305492 800.14939594 -131.52119923 797.79052476 -131.44067383 795.43237305 C-130.28853684 781.89798308 -130.28853684 781.89798308 -134.3996582 769.49365234 C-136.88866894 767.00577928 -139.32980702 765.13022609 -142.25 763.1875 C-143.48013026 761.89339275 -144.67696711 760.56536033 -145.8125 759.1875 C-147.57832485 757.11439704 -149.3511682 755.08052214 -151.22265625 753.1015625 C-174.78076596 728.04702114 -187.88225996 696.98063557 -198.95751953 664.92089844 C-200.0563176 661.74696191 -201.16634794 658.5774767 -202.28337097 655.40994263 C-211.37071512 629.62858916 -211.37071512 629.62858916 -214.25 617.1875 C-215.425625 617.001875 -216.60125 616.81625 -217.8125 616.625 C-233.71174898 613.06396947 -246.64423428 603.12445888 -258.25 592.1875 C-258.86617187 591.63578125 -259.48234375 591.0840625 -260.1171875 590.515625 C-265.82010615 585.20691732 -270.07009414 578.71913239 -274.25 572.1875 C-274.71841309 571.45934082 -275.18682617 570.73118164 -275.66943359 569.98095703 C-279.72004681 563.47985998 -282.81755681 556.75431052 -285.75 549.6875 C-286.22630859 548.54764648 -286.70261719 547.40779297 -287.19335938 546.23339844 C-292.86774831 532.48868144 -297.63939521 518.8641928 -300.25 504.1875 C-300.41918945 503.3927124 -300.58837891 502.5979248 -300.76269531 501.77905273 C-302.47741713 493.02650955 -302.55543237 484.42343298 -302.51074219 475.54125977 C-302.49997491 472.99406377 -302.51071752 470.44756595 -302.5234375 467.90039062 C-302.52211643 466.25260264 -302.51955512 464.60481508 -302.515625 462.95703125 C-302.51967346 462.20992386 -302.52372192 461.46281647 -302.52789307 460.69306946 C-302.40946606 447.14197438 -297.32895277 433.31604268 -288.25 423.1875 C-281.41629204 417.42322991 -275.51294875 413.8791576 -266.4375 414.0625 C-265.27605469 414.08054687 -264.11460937 414.09859375 -262.91796875 414.1171875 C-261.59732422 414.15199219 -261.59732422 414.15199219 -260.25 414.1875 C-260.70052734 413.14480957 -260.70052734 413.14480957 -261.16015625 412.08105469 C-262.30946568 409.02961755 -263.01935048 406.08132209 -263.6875 402.890625 C-263.94273437 401.6840625 -264.19796875 400.4775 -264.4609375 399.234375 C-264.72132813 397.98140625 -264.98171875 396.7284375 -265.25 395.4375 C-265.77057357 392.96348699 -266.29140139 390.48952747 -266.8125 388.015625 C-267.18375 386.23188477 -267.18375 386.23188477 -267.5625 384.41210938 C-268.10649887 381.86056922 -268.69634996 379.33127339 -269.3125 376.796875 C-270.82936856 370.02424492 -271.45255105 363.07421887 -272.25 356.1875 C-272.42586797 354.69169409 -272.60205784 353.195926 -272.77856445 351.70019531 C-273.03828298 349.49713122 -273.2974693 347.29401432 -273.55451965 345.09063721 C-273.98715139 341.38547794 -274.43447215 337.68323925 -274.91796875 333.984375 C-279.29498581 300.34532145 -279.10887421 264.72958851 -274.25 231.1875 C-274.1272168 230.29111816 -274.00443359 229.39473633 -273.87792969 228.47119141 C-269.71623578 198.22152371 -261.67776471 168.71858022 -246.25 142.1875 C-247.9 142.1875 -249.55 142.1875 -251.25 142.1875 C-248.49552774 119.20346096 -222.50040926 95.05474105 -205.3125 81.4375 C-202.98388426 79.65127071 -200.62566793 77.91051916 -198.25 76.1875 C-197.68796875 75.77580566 -197.1259375 75.36411133 -196.546875 74.93994141 C-182.56532107 64.81854701 -166.97960108 57.17843381 -151.25 50.1875 C-160.16 46.2275 -160.16 46.2275 -169.25 42.1875 C-167.83114064 37.93092191 -164.75114165 36.90097644 -161 34.875 C-160.26765137 34.47474609 -159.53530273 34.07449219 -158.78076172 33.66210938 C-156.61164317 32.48848915 -154.43344887 31.33419963 -152.25 30.1875 C-151.24710938 29.65769531 -150.24421875 29.12789062 -149.2109375 28.58203125 C-119.00396487 13.72818934 -85.32711806 7.56827389 -52.25 3.1875 C-51.59040283 3.0979303 -50.93080566 3.0083606 -50.2512207 2.91607666 C-33.48036007 0.64368906 -16.90363644 -0.01787464 0 0 Z " fill="#CECDC9" transform="translate(880.25,135.8125)"/>
<path d="M0 0 C1.81955122 0.59198181 3.63591511 1.19383645 5.44921875 1.8046875 C6.34833984 2.08828125 7.24746094 2.371875 8.17382812 2.6640625 C14.56688293 4.79045817 19.70331428 7.7282485 25.13671875 11.6796875 C26.12671875 12.3396875 27.11671875 12.9996875 28.13671875 13.6796875 C28.13671875 14.3396875 28.13671875 14.9996875 28.13671875 15.6796875 C28.79671875 15.6796875 29.45671875 15.6796875 30.13671875 15.6796875 C50.61293754 39.79021352 49.25584373 71.67072673 49.61352539 101.52270508 C49.75234486 112.62410596 49.95497365 123.70457709 50.921875 134.76953125 C50.98144882 135.55840225 51.04102264 136.34727325 51.10240173 137.16004944 C51.94461261 145.57470798 55.38064882 151.35254099 61.32421875 157.3046875 C83.3069242 180.22274856 86.3516968 207.14415675 86.76171875 237.4921875 C86.7999688 239.84181024 86.83902442 242.19142001 86.87890625 244.54101562 C86.97413845 250.25378978 87.05940031 255.96664427 87.13671875 261.6796875 C87.67807968 260.62225342 87.67807968 260.62225342 88.2303772 259.54345703 C108.06725897 220.82962616 108.06725897 220.82962616 120.13671875 215.6796875 C124.55232664 214.65878568 127.4787851 215.27480526 131.38671875 217.6796875 C138.12396186 224.1972379 140.07704965 233.73686455 140.47265625 242.78125 C140.89316881 268.45807247 135.56544473 294.19861909 125.13671875 317.6796875 C124.83362793 318.37336426 124.53053711 319.06704102 124.21826172 319.78173828 C118.10090698 333.6865136 110.84129219 345.74613923 100.13671875 356.6796875 C99.54761719 357.30488281 98.95851563 357.93007813 98.3515625 358.57421875 C91.11833155 365.61668317 81.10521725 370.02993698 71.6484375 373.2734375 C70.92398438 373.52343506 70.19953125 373.77343262 69.453125 374.03100586 C68.06974558 374.49313708 66.67772502 374.93041403 65.27734375 375.33813477 C61.70148836 376.51134806 60.29973884 377.40146655 58.37890625 380.6796875 C57.92816266 382.00107153 57.51806178 383.33663016 57.13671875 384.6796875 C56.88929932 385.50460693 56.64187988 386.32952637 56.38696289 387.17944336 C55.57609646 389.98256602 54.81908291 392.79584782 54.07421875 395.6171875 C53.81833984 396.56787109 53.56246094 397.51855469 53.29882812 398.49804688 C52.20622285 402.57354881 51.13569531 406.65243533 50.12890625 410.75 C48.97562971 415.40511878 47.65126156 420.00910297 46.32421875 424.6171875 C46.06068604 425.53234131 45.79715332 426.44749512 45.52563477 427.39038086 C44.98705452 429.25878887 44.44791468 431.12703566 43.90820312 432.99511719 C43.19899534 435.46298075 42.50175318 437.93384092 41.80859375 440.40625 C39.44578563 448.76125801 36.68028718 456.74286666 33.13671875 464.6796875 C32.54250564 466.08258698 31.95019519 467.48629325 31.359375 468.890625 C22.34766789 490.07963761 9.6862663 509.28166557 -6.265625 525.94140625 C-8.2466519 528.02967671 -10.12597648 530.13670577 -11.99609375 532.3203125 C-16.23304702 537.19048581 -20.77905315 541.74594196 -25.35131836 546.2980957 C-26.7985251 547.73993971 -28.24030151 549.18705866 -29.68164062 550.63476562 C-34.90630568 555.86340445 -40.24396458 560.87868044 -45.86328125 565.6796875 C-46.91240383 566.61597721 -47.95938299 567.55467579 -49.00390625 568.49609375 C-64.08358527 581.90938963 -80.6021152 593.07314199 -98.86328125 601.6796875 C-99.84240479 602.1432666 -99.84240479 602.1432666 -100.84130859 602.61621094 C-116.55374417 609.88193537 -132.07074018 612.04254924 -149.23828125 612.1171875 C-149.91583466 612.12345154 -150.59338806 612.12971558 -151.29147339 612.13616943 C-189.14452907 612.35746863 -221.66535803 589.30304703 -248.546875 564.77734375 C-250.53852942 562.97377137 -252.56349982 561.22862654 -254.61328125 559.4921875 C-260.46851963 554.40327888 -265.83815678 548.78158893 -271.29003906 543.26928711 C-274.417573 540.10923536 -277.56648239 536.97115284 -280.73046875 533.84765625 C-286.33574272 528.30424249 -291.82332369 522.74963639 -296.86328125 516.6796875 C-297.33378906 516.12297363 -297.80429687 515.56625977 -298.2890625 514.99267578 C-305.61394342 506.3110879 -312.32903482 497.63671065 -317.86328125 487.6796875 C-318.27255859 486.96312988 -318.68183594 486.24657227 -319.10351562 485.50830078 C-326.86781751 471.83576188 -332.49647749 457.7276933 -337.69970703 442.91259766 C-338.91077076 439.5477412 -340.19911995 436.22016261 -341.50390625 432.890625 C-343.37003608 428.07466624 -344.95574235 423.30359805 -346.23828125 418.3046875 C-348.45746028 409.99715564 -350.92561138 401.77772915 -353.45263672 393.55908203 C-353.7363916 392.63595215 -354.02014648 391.71282227 -354.3125 390.76171875 C-354.58497559 389.88725098 -354.85745117 389.0127832 -355.13818359 388.11181641 C-355.77335734 385.98131106 -356.30259823 383.85222679 -356.8203125 381.69140625 C-358.03164145 378.19352376 -358.57249833 377.30925789 -361.86328125 375.6796875 C-364.83069385 374.7595772 -367.83711015 374.0650349 -370.86328125 373.3671875 C-390.38908062 368.50931507 -405.6687032 357.47554674 -416.40844727 340.27075195 C-418.30257637 337.11440986 -420.10008705 333.91066722 -421.86328125 330.6796875 C-422.48074219 329.55691406 -423.09820313 328.43414063 -423.734375 327.27734375 C-431.9385135 311.61821971 -436.90883161 295.27884101 -440.390625 277.99560547 C-440.76818431 276.14564288 -441.18432018 274.3035675 -441.61328125 272.46484375 C-443.07564533 265.54908031 -443.06384386 258.5960596 -443.11328125 251.5546875 C-443.12270752 250.54035645 -443.13213379 249.52602539 -443.1418457 248.48095703 C-443.09546248 237.73930235 -441.79761076 225.60088291 -434.67578125 217.0546875 C-430.57601814 215.05035887 -427.33253164 214.75954771 -422.86328125 215.6796875 C-408.19611947 221.69828147 -401.03383927 240.18586234 -394.16259766 253.28295898 C-393.23743192 254.98952644 -392.24151752 256.65853169 -391.20068359 258.29711914 C-389.86328125 260.6796875 -389.86328125 260.6796875 -389.86328125 263.6796875 C-389.20328125 263.6796875 -388.54328125 263.6796875 -387.86328125 263.6796875 C-387.87488281 262.72835938 -387.88648438 261.77703125 -387.8984375 260.796875 C-388.21435772 222.91432338 -387.26345264 187.64018762 -365.79296875 155.17578125 C-360.01291575 144.70382288 -359.33835357 135.33835971 -359.54296875 123.65625 C-359.55554711 122.02161089 -359.56601471 120.38695433 -359.57449341 118.75228882 C-359.60091754 114.47289318 -359.64966774 110.19408432 -359.7052002 105.91497803 C-359.79186897 99.07629984 -359.85140676 92.23748004 -359.89728165 85.39841843 C-359.91741473 83.03381926 -359.95154211 80.66973592 -359.98727417 78.30532837 C-360.19763221 59.49268916 -357.46466999 43.64361964 -343.98828125 29.74609375 C-333.49999942 19.91332953 -321.77445546 17.30188042 -307.80078125 17.3671875 C-306.01051514 17.36912109 -306.01051514 17.36912109 -304.18408203 17.37109375 C-295.77575178 17.458578 -287.58054569 18.18647867 -279.23828125 19.1796875 C-254.61852332 22.05556545 -229.60346415 20.93511114 -204.86328125 20.6796875 C-212.19983172 28.11801671 -220.27370714 34.43814511 -229.86328125 38.6796875 C-193.22430072 52.31555404 -143.74035645 43.30235589 -106.86328125 35.6796875 C-105.96512695 35.49712402 -105.06697266 35.31456055 -104.14160156 35.12646484 C-92.50114839 32.71417805 -81.18168428 29.34501368 -69.86328125 25.7421875 C-69.21210327 25.53703522 -68.56092529 25.33188293 -67.89001465 25.12051392 C-58.86716414 22.26188929 -50.37530572 18.80464264 -41.86328125 14.6796875 C-39.85752395 13.73927745 -37.85102884 12.80043923 -35.84375 11.86328125 C-33.91233676 10.94881091 -31.98134351 10.033453 -30.05078125 9.1171875 C-29.07947266 8.66150391 -28.10816406 8.20582031 -27.10742188 7.73632812 C-22.725415 5.65346752 -18.56507681 3.55475157 -14.5390625 0.83984375 C-9.39428058 -2.42836855 -5.66469781 -1.63014432 0 0 Z " fill="#FEFEFE" transform="translate(1042.86328125,357.3203125)"/>
<path d="M0 0 C0.02187378 1.06637695 0.02187378 1.06637695 0.04418945 2.15429688 C0.20617818 48.68615244 0.20617818 48.68615244 12 93 C12.2573291 93.58523438 12.5146582 94.17046875 12.77978516 94.7734375 C29.49595737 132.37774585 65.03084842 151.71070677 101.875 165.88671875 C105.57148832 167.29147146 109.2801779 168.65833856 113 170 C113 170.66 113 171.32 113 172 C111.41796875 173.18579102 111.41796875 173.18579102 109.1875 174.50390625 C108.36789795 174.9925415 107.5482959 175.48117676 106.70385742 175.98461914 C105.81158447 176.50531982 104.91931152 177.02602051 104 177.5625 C103.08516846 178.10189209 102.17033691 178.64128418 101.2277832 179.19702148 C98.48983313 180.80610689 95.74529198 182.40348351 93 184 C91.93724854 184.62648438 91.93724854 184.62648438 90.85302734 185.265625 C67.82127282 198.84174879 43.12976796 209.01637749 18 218 C17.2147998 218.28238525 16.42959961 218.56477051 15.62060547 218.85571289 C-10.90629636 228.29668166 -38.20054725 233.9421296 -66 238 C-67.2286377 238.18079102 -68.45727539 238.36158203 -69.72314453 238.54785156 C-118.62233532 245.35086441 -169.98153852 242.10811306 -218 231 C-219.52434844 230.66747269 -221.0490711 230.33665474 -222.57421875 230.0078125 C-233.55579217 227.59336214 -244.29385634 224.41991812 -255 221 C-256.55364258 220.50983398 -256.55364258 220.50983398 -258.13867188 220.00976562 C-292.55138474 209.03906577 -331.27993615 194.3494315 -360 172 C-360 171.34 -360 170.68 -360 170 C-358.70255859 169.54173828 -358.70255859 169.54173828 -357.37890625 169.07421875 C-320.57946302 155.91676269 -320.57946302 155.91676269 -289.23046875 133.20703125 C-288 132 -288 132 -286 132 C-286 131.34 -286 130.68 -286 130 C-285.34 130 -284.68 130 -284 130 C-283.75507812 129.43925781 -283.51015625 128.87851563 -283.2578125 128.30078125 C-281.76792258 125.57548572 -279.92940054 123.51749086 -277.875 121.1875 C-272.46193824 114.6517936 -268.62918027 107.64586199 -265 100 C-264.53851562 99.04351563 -264.07703125 98.08703125 -263.6015625 97.1015625 C-250.85741309 67.47344444 -251.69323943 33.62975367 -251 2 C-247.67195173 4.84945318 -244.34559568 7.70039268 -241.03515625 10.5703125 C-203.65833842 42.69178275 -164.51016748 63.18174283 -114 60 C-86.15830954 57.54638713 -59.44514681 45.37245457 -37 29 C-36.39381836 28.56075195 -35.78763672 28.12150391 -35.16308594 27.66894531 C-24.59275896 19.98190792 -13.86965666 12.08919626 -4.7578125 2.6796875 C-2 0 -2 0 0 0 Z " fill="#FEFEFE" transform="translate(1023,931)"/>
<path d="M0 0 C0.66 0 1.32 0 2 0 C2.07516846 0.67764404 2.15033691 1.35528809 2.2277832 2.0534668 C3.5221169 13.65746678 4.82533036 25.25628064 6.5 36.8125 C6.6235083 37.66497314 6.7470166 38.51744629 6.87426758 39.39575195 C7.48320476 43.55939457 8.11002935 47.71993032 8.75 51.87890625 C10.53384648 63.65856434 11.77833963 75.45856444 12.87719727 87.31958008 C13.60017509 95.08747952 14.44260419 102.82494223 15.4375 110.5625 C16.98520818 122.82438988 18.0522849 135.12664258 19.125 147.4375 C19.21135712 148.41937286 19.29771423 149.40124573 19.38668823 150.41287231 C20.3170761 161.03764188 21.18258942 171.65261465 21.65213013 182.30918884 C21.78127371 185.03874837 21.93381164 187.67852678 22.48564148 190.35873413 C23.04217101 193.21655102 23.28503128 195.98795869 23.48022461 198.89282227 C23.55922501 200.05998276 23.6382254 201.22714325 23.71961975 202.42967224 C23.80054367 203.69166946 23.88146759 204.95366669 23.96484375 206.25390625 C24.02906682 207.23848407 24.02906682 207.23848407 24.09458733 208.24295235 C25.0370746 222.73151344 25.74521795 237.22911854 26.37768555 251.73413086 C26.49869254 254.50613793 26.6236452 257.27791591 26.75268555 260.04956055 C28.9286617 306.83748272 29.23982335 353.64939296 29.24943876 400.48017168 C29.25000538 402.70866329 29.25107448 404.93715423 29.2522316 407.1656456 C29.27524666 457.88066202 28.42955308 508.50995579 26.54043579 559.19347286 C26.07350631 571.73284924 25.66111676 584.27345992 25.27008247 596.81542015 C25.10299078 602.17345593 24.93383403 607.53142658 24.76489258 612.8894043 C24.73226161 613.92439591 24.69963064 614.95938753 24.66601086 616.02574253 C24.60103206 618.0862125 24.53602263 620.1466815 24.4709816 622.20714951 C24.4072738 624.22684206 24.34369184 626.24653858 24.28023911 628.26623917 C24.10224962 633.92412629 23.9206695 639.58187396 23.7332859 645.23945808 C23.67752409 646.94071286 23.62305078 648.64201044 23.56998253 650.34335136 C23.49720945 652.67076062 23.41982913 654.99797385 23.34130859 657.32519531 C23.29928314 658.62241516 23.25725769 659.91963501 23.21395874 661.25616455 C22.98766701 665.21580185 22.51148395 669.06802082 22 673 C21.8417452 675.73284362 21.77141989 678.46247465 21.71875 681.19921875 C21.70034058 681.95612503 21.68193115 682.71303131 21.66296387 683.49287415 C21.60484401 685.89101222 21.55183641 688.28921846 21.5 690.6875 C21.2937781 700.12263383 21.03047167 709.5013895 20.23193359 718.90893555 C19.8159723 724.45260498 19.71328543 730.00645966 19.5625 735.5625 C19.23086659 746.33541477 18.63175328 757.05489596 17.80322266 767.80004883 C16.88623273 779.92516422 16.28451241 792.06379016 15.69750977 804.20874023 C15.658284 804.99778244 15.61905823 805.78682465 15.5786438 806.59977722 C15.50554252 808.07133995 15.43484178 809.54302499 15.36715698 811.0148468 C15.19867879 814.38024287 14.9367758 817.70755326 14.5 821.04711914 C14.02209053 824.82535752 13.73848265 828.55348911 13.53515625 832.35546875 C13.49769287 833.04217651 13.46022949 833.72888428 13.42163086 834.43640137 C13.34137148 835.91467676 13.26239695 837.39302237 13.18460083 838.87142944 C13.05957466 841.2429893 12.93047561 843.61430022 12.80053711 845.9855957 C12.39835553 853.36002241 12.01013522 860.73500555 11.64616394 868.11141968 C10.60699806 889.14614617 9.03206454 910.0327886 7 931 C-5.21 931 -17.42 931 -30 931 C-30.20977838 883.44719259 -29.64487485 835.93430964 -28.72039545 788.39095414 C-28.57722082 781.00636972 -28.44091438 773.62167061 -28.30632645 766.2369253 C-28.14186296 757.21673967 -27.97271468 748.19664614 -27.80220294 739.17657304 C-27.75460709 736.64277843 -27.7078573 734.10896947 -27.66131783 731.57515526 C-27.10257507 701.30136132 -27.10257507 701.30136132 -26.35107422 687.13589668 C-25.9041981 678.61935512 -25.73446967 670.10178826 -25.5847168 661.57553673 C-25.53311778 658.63785031 -25.47777328 655.70025248 -25.42163086 652.76264954 C-25.34132423 648.54595204 -25.26241471 644.32923201 -25.18460083 640.11248779 C-24.97776854 628.95368489 -24.75540179 617.79518538 -24.53125 606.63671875 C-24.50891863 605.52434593 -24.48658726 604.41197311 -24.46357918 603.26589203 C-24.07107127 583.80011471 -23.62404182 564.33666068 -23.0625 544.875 C-23.03272568 543.84204552 -23.03272568 543.84204552 -23.00234985 542.78822327 C-22.27293865 517.61913609 -21.33717351 492.45794325 -20.36990356 467.29702759 C-19.57069171 446.49722665 -18.8489915 425.69711554 -18.24609375 404.890625 C-18.21523115 403.82721138 -18.18436855 402.76379776 -18.15257072 401.66815948 C-17.99646088 396.28265488 -17.8410838 390.8971293 -17.6859436 385.51159668 C-17.62398004 383.36189728 -17.56199888 381.21219838 -17.5 379.0625 C-17.46942379 378.00227127 -17.43884758 376.94204254 -17.40734482 375.84968567 C-16.55742026 346.46330666 -15.44850533 317.12500552 -13.79742432 287.77209473 C-13.73794617 286.71292847 -13.67846802 285.65376221 -13.6171875 284.5625 C-13.55980408 283.54232788 -13.50242065 282.52215576 -13.44329834 281.47106934 C-12.96829201 272.83701563 -12.68859421 264.20696118 -12.5 255.5625 C-12.11930271 238.40687222 -11.38686218 221.26714915 -10.625 204.125 C-10.59249775 203.39235931 -10.5599955 202.65971863 -10.52650833 201.90487671 C-9.65648908 182.35487015 -8.61050014 162.82866125 -7.24465942 143.30615234 C-6.15949737 127.70718532 -5.49309881 112.11528221 -4.95437622 96.48867798 C-4.21330876 75.22555324 -3.07653934 53.99118485 -1.875 32.75 C-1.82868061 31.93048103 -1.78236122 31.11096207 -1.73463821 30.26660919 C-1.16390006 20.17730579 -0.5857863 10.0884414 0 0 Z " fill="#FDFDFC" transform="translate(456,1629)"/>
<path d="M0 0 C0.33 0 0.66 0 1 0 C1.05597855 1.10117661 1.11195709 2.20235321 1.16963196 3.3368988 C4.33931603 65.81985018 4.33931603 65.81985018 7.56674194 128.29983521 C7.68759209 130.61627387 7.80790455 132.93274066 7.92764282 135.24923706 C8.09078238 138.40192144 8.25600029 141.55448975 8.421875 144.70703125 C8.48875771 146.00995621 8.48875771 146.00995621 8.55699158 147.33920288 C8.79967873 151.90005629 9.11411381 156.44699044 9.49121094 160.9987793 C10.08669171 168.59004849 10.36525075 176.18434816 10.63075256 183.79281616 C10.72099227 186.37670427 10.81462959 188.9604512 10.90905762 191.54418945 C11.14272009 197.95604523 11.37075056 204.36809884 11.59893799 210.78015137 C11.79273383 216.21960209 11.98872593 221.65896549 12.18751526 227.09823608 C12.27880146 229.6198632 12.36695838 232.1415864 12.45495605 234.66333008 C12.73374328 242.43044941 13.13251589 250.15671876 13.77359009 257.90411377 C14.18205749 263.4894196 14.31285493 269.08252475 14.46484375 274.6796875 C14.52237111 276.63183027 14.57990617 278.58397283 14.63778687 280.53610516 C14.69810785 282.58254631 14.75717313 284.6290205 14.81594849 286.67550659 C15.37593301 306.10571743 15.9657132 325.5287816 17.0625 344.9375 C17.89359443 359.6751276 18.35253796 374.40182246 18.67602539 389.15893555 C18.85999486 397.52895976 19.07979459 405.8877513 19.5 414.25 C19.85520744 421.38408963 20.06966121 428.51526584 20.21484375 435.65625 C20.23346466 436.55591492 20.25208557 437.45557983 20.27127075 438.38250732 C20.36222898 442.8372633 20.44663741 447.29198322 20.51953125 451.74707031 C20.68334227 460.67165469 20.96020176 469.58472491 21.4128418 478.49926758 C22.56315187 501.21604502 23.37339919 523.93054272 23.96484375 546.66796875 C23.98453516 547.42490737 24.00422656 548.18184598 24.02451468 548.96172214 C24.27280069 558.53525804 24.51311228 568.10898832 24.75069594 577.68279511 C24.96135199 586.16638084 25.17680406 594.64984306 25.39241755 603.133304 C25.74383754 616.96422916 26.09214983 630.79522983 26.43806112 644.62629378 C26.86104394 661.53693408 27.29312872 678.44731981 27.73166496 695.35756338 C30.25820336 792.79665958 30.25820336 792.79665958 30.7097168 832.28540039 C30.84755627 844.05179281 31.10642413 855.80222731 31.51953125 867.5625 C31.99954814 881.35984978 32.12028619 895.13314198 32.0625 908.9375 C32.05745556 911.10872288 32.05289805 913.27994695 32.04882812 915.45117188 C32.03897077 920.63417073 32.01936366 925.81699437 32 931 C19.13 931 6.26 931 -7 931 C-7.16081055 927.83462646 -7.32162109 924.66925293 -7.48730469 921.40795898 C-8.03264386 910.69115929 -8.58469779 899.97471207 -9.13965988 889.25840664 C-9.47440358 882.79083031 -9.80720315 876.32316894 -10.13476562 869.85522461 C-11.64578313 840.04977605 -13.34999328 810.27661769 -15.64398193 780.52000427 C-17.12517327 761.21247966 -18.02215949 741.90039155 -18.77783203 722.55273438 C-19.12812641 713.68335171 -19.53016297 704.81622342 -19.93231201 695.94906616 C-20.05807776 693.16055124 -20.18089414 690.37191947 -20.30322266 687.58325195 C-20.62704628 680.30894884 -20.9703112 673.04614246 -21.52734375 665.78515625 C-22.16974572 657.27815905 -22.34405958 648.76127032 -22.55224609 640.23535156 C-22.60493494 638.12296389 -22.6617567 636.01071279 -22.71875 633.8984375 C-22.74904297 632.66786621 -22.77933594 631.43729492 -22.81054688 630.16943359 C-22.92045662 627.06989834 -23.17972393 624.00408313 -23.47265625 620.91674805 C-24.31719199 611.11215031 -24.45049241 601.26706355 -24.71875 591.43359375 C-24.78196103 589.19636916 -24.84540197 586.95915107 -24.90905762 584.72193909 C-25.04219941 580.01739965 -25.17307804 575.31280448 -25.30224609 570.6081543 C-25.46328502 564.74619798 -25.6290243 558.88438729 -25.79632759 553.02260685 C-26.22393767 538.01572889 -26.62259292 523.00822165 -27 508 C-27.02687645 506.94300274 -27.0537529 505.88600548 -27.08144379 504.796978 C-27.99291125 468.75640505 -28.15872254 432.72726627 -28.12856984 396.67778653 C-28.12421561 390.86669715 -28.12734314 385.05562938 -28.1321975 379.24454135 C-28.13679906 373.49361991 -28.13734704 367.74270756 -28.13475883 361.99178487 C-28.13324097 358.61909471 -28.13329818 355.24643011 -28.13629532 351.87373924 C-28.14602484 337.89175993 -28.00736819 323.92507312 -27.55419922 309.95043945 C-27.51547762 308.7433668 -27.47675602 307.53629416 -27.43686104 306.29264355 C-27.19331548 299.46451176 -26.77770892 292.67022095 -26.22463799 285.86037731 C-25.95766325 282.46091452 -25.78783902 279.06458205 -25.65869141 275.65722656 C-25.60827698 274.36774109 -25.55786255 273.07825562 -25.50592041 271.74969482 C-25.48086678 271.0816256 -25.45581314 270.41355637 -25.43000031 269.72524261 C-25.32039135 266.81219878 -25.20434216 263.89941982 -25.08879089 260.9866066 C-24.99658262 258.66093095 -24.90512301 256.33522653 -24.81365967 254.00952148 C-23.93720455 231.82273916 -23.05656678 209.64336224 -21.375 187.5 C-21.31274231 186.67391235 -21.25048462 185.84782471 -21.18634033 184.9967041 C-20.24738432 172.71267884 -20.24738432 172.71267884 -19.48852539 167.45898438 C-19.01849771 164.13097227 -18.73903513 160.85389492 -18.53515625 157.5 C-18.45716797 156.28183594 -18.37917969 155.06367187 -18.29882812 153.80859375 C-18.14322264 151.30090208 -17.98952706 148.79309105 -17.83789062 146.28515625 C-17.35571948 138.81346348 -16.56812965 131.45839655 -15.52856445 124.04492188 C-14.91609766 119.52532481 -14.47021403 114.99275189 -14.03515625 110.453125 C-13.95509842 109.62228394 -13.87504059 108.79144287 -13.79255676 107.9354248 C-13.46580387 104.52375887 -13.1425918 101.1117911 -12.82543945 97.69921875 C-11.87303611 87.50370667 -10.71532278 77.4016334 -9.00587463 67.30218506 C-8.28330442 63.01100699 -7.75859295 58.78830827 -7.5 54.4375 C-7.03113246 46.91648195 -5.65444398 39.57755149 -4.36865234 32.16308594 C-2.86602871 23.34636715 -1.78550579 14.57235092 -1.24609375 5.64453125 C-1 3 -1 3 0 0 Z " fill="#FDFDFC" transform="translate(1335,1629)"/>
<path d="M0 0 C1.87966216 1.33391934 3.53312589 2.78223697 5.21777344 4.35498047 C33.81291284 30.74868585 75.77417372 49.7814734 112.09033203 62.33447266 C114.7007443 63.24421234 117.286247 64.21811043 119.875 65.1875 C124.626929 66.91080758 129.43494479 68.41432296 134.2734375 69.875 C136.40369051 70.51809525 138.53023856 71.17460806 140.64379883 71.87060547 C149.46971406 74.72019702 158.37590894 76.73652987 167.44702148 78.60986328 C169.9319229 79.12384642 172.41424589 79.64910477 174.89648438 80.17578125 C184.22770269 82.13690528 193.53348622 83.81360721 203 85 C204.07548096 85.14228027 205.15096191 85.28456055 206.2590332 85.43115234 C287.03535185 95.67467696 369.8140852 83.19871784 444 50 C444.80179688 49.64728027 445.60359375 49.29456055 446.4296875 48.93115234 C473.46460952 37.00851458 503.92534819 20.07465181 525 -1 C531.41769587 -0.88115378 536.53069333 1.2747228 542.36328125 3.84375 C545.02745139 5.05992089 545.02745139 5.05992089 548 6 C546.39250196 10.00447736 543.58669729 12.71787398 540.5625 15.6875 C540.02391357 16.22004395 539.48532715 16.75258789 538.93041992 17.30126953 C534.83640486 21.29622132 530.56648991 24.98485635 526.08203125 28.5390625 C523.75347668 30.39836463 521.46978025 32.28307041 519.19921875 34.2109375 C508.9301126 42.89522246 498.25149086 50.64051985 487 58 C486.22930176 58.50772949 485.45860352 59.01545898 484.66455078 59.53857422 C467.46153476 70.82476787 449.50405225 80.72628346 430.75585938 89.20214844 C429.21081696 89.90420609 427.67492689 90.62633237 426.140625 91.3515625 C392.69078683 107.06285013 356.4443953 115.76055141 320 121 C319.25165894 121.11859375 318.50331787 121.2371875 317.7322998 121.359375 C300.88408238 124.02077856 284.28903133 124.55837122 267.25 124.5 C265.88550836 124.4984303 264.52101656 124.4969871 263.15652466 124.4956665 C170.62942494 124.31646324 80.41570133 94.77202035 3 33 C1.55753906 31.84757812 1.55753906 31.84757812 0.0859375 30.671875 C-5.61924712 26.07558542 -11.08053897 21.26748496 -16.47265625 16.30859375 C-19.58789598 13.46298837 -22.77662843 10.72195822 -26 8 C-24.22014239 4.44028478 -19.93894217 3.71282059 -16.375 2.3125 C-15.57964844 1.97927734 -14.78429687 1.64605469 -13.96484375 1.30273438 C-8.95442383 -0.67592899 -5.31713419 -1.71660393 0 0 Z " fill="#FCFCFB" transform="translate(636,1114)"/>
<path d="M0 0 C0.66 0 1.32 0 2 0 C2.33 3.63 2.66 7.26 3 11 C2.01 11.66 1.02 12.32 0 13 C0 8.71 0 4.42 0 0 Z " fill="#EEEEEA" transform="translate(456,1629)"/>
<path d="M0 0 C0.99 0.99 1.98 1.98 3 3 C2.67 3.33 2.34 3.66 2 4 C1.76321284 6.69235776 1.57801975 9.36498156 1.4375 12.0625 C1.39431641 12.82111328 1.35113281 13.57972656 1.30664062 14.36132812 C1.20026367 16.24065438 1.09960066 18.12030244 1 20 C0.67 20 0.34 20 0 20 C0 13.4 0 6.8 0 0 Z " fill="#F2F3EF" transform="translate(772,933)"/>
</svg>
